<svg width="326" height="326" viewBox="0 0 326 326" fill="none" xmlns="http://www.w3.org/2000/svg">
<g clip-path="url(#clip0_4367_60869)">
<mask id="mask0_4367_60869" style="mask-type:luminance" maskUnits="userSpaceOnUse" x="0" y="0" width="326" height="326">
<path d="M326 0H0V326H326V0Z" fill="white"/>
</mask>
<g mask="url(#mask0_4367_60869)">
<mask id="mask1_4367_60869" style="mask-type:luminance" maskUnits="userSpaceOnUse" x="0" y="0" width="866" height="326">
<path d="M866 0H0V326H866V0Z" fill="white"/>
</mask>
<g mask="url(#mask1_4367_60869)">
<path d="M155.034 -0.00661883C244.977 -4.49662 321.49 64.8598 325.827 154.81C330.163 244.76 260.678 321.156 170.72 325.339C80.9799 329.512 4.80791 260.229 0.48146 170.496C-3.84464 80.7623 65.3082 4.47241 155.034 -0.00661883ZM312.635 151.943C306.697 69.3067 234.836 7.16604 152.209 13.216C69.7382 19.2542 7.74247 90.9471 13.669 173.425C19.5955 255.903 91.2055 317.996 173.691 312.18C256.334 306.354 318.573 234.578 312.635 151.943Z" fill="#212529"/>
<path d="M171.66 78.5697C172.275 78.5157 172.891 78.4777 173.508 78.4557C177.34 78.3407 180.859 79.7687 183.569 82.5057C192.913 91.9447 181.506 99.0427 181.697 103.218C181.723 103.775 181.963 104.755 182.362 105.163C183.464 106.289 194.035 107.199 196.314 107.682C206.412 109.822 217.047 116.695 224.745 123.36C242.592 138.808 250.388 158.82 252.059 181.95C227.455 181.994 202.851 182.167 178.249 182.468L98.3438 183.01C98.7878 147.938 119.195 115.217 155.103 107.221C157.639 106.657 165.949 106.162 167.263 104.322C166.833 101.478 164.189 98.6387 163.079 95.8537C159.558 87.0227 163.747 81.7937 171.66 78.5697Z" fill="#212529"/>
<path d="M58.4551 70.9082C69.1541 71.7002 63.7601 84.8852 64.9401 91.6382C66.0871 98.2112 61.5211 115.995 68.6261 118.31C78.6191 116.532 68.7051 76.4702 74.6661 72.8632C92.2171 62.2412 78.5071 110.465 86.0961 118.008C87.1481 118.461 87.9071 118.642 89.0201 118.185C96.0491 115.298 88.5531 80.9192 93.1111 73.2052C93.7701 72.0902 94.7301 71.2912 96.0341 71.0532C97.6421 70.7592 98.9501 71.3312 100.144 72.3502C102.472 74.3372 102.657 76.7092 102.774 79.5912C103.081 87.1142 102.823 94.7642 102.801 102.301C102.779 109.427 103.226 116.944 102.134 123.989C101.689 126.855 100.794 129.443 99.4301 132.005C96.1631 138.139 90.6911 142.714 86.0341 147.755C85.9301 152.276 86.3501 158.54 86.5531 163.18C87.1011 170.794 87.4701 178.42 87.6611 186.052C87.2271 186.423 86.8041 186.807 86.3921 187.202C79.4231 193.943 81.9721 199.944 88.0821 205.729C89.2161 218.826 89.3651 234.962 89.7631 248.207C90.0291 257.054 77.5991 262.199 69.8501 254.806C68.0421 253.075 66.8711 250.785 66.5271 248.306C65.7961 242.85 67.0321 225.613 67.3551 219.595L69.7711 175.25C70.2541 166.39 70.9951 156.689 70.9811 147.905C65.7101 141.735 55.7871 133.86 54.9231 125.03C53.3461 108.901 53.6991 91.4772 54.5051 75.2772C54.6011 73.3412 57.0351 71.8082 58.4551 70.9082Z" fill="#212529"/>
<path d="M239.907 212.611C243.874 221.635 247.473 226.641 257.026 219.245C260.506 222.666 261.758 223.892 263.651 228.559C258.283 238.655 258.994 240.491 268.241 246.789C267.415 251.706 266.746 253.753 264.435 258.102C253.88 258.86 251.71 260.767 253.597 271.5C249.569 274.353 247.354 275.046 242.801 276.494C240.483 274.106 239.667 273.28 236.947 271.289C231.386 268.818 227.915 273.018 223.899 276.406C220.019 274.95 217.893 273.385 214.605 271.022C217.359 258.013 213.756 260.308 205.071 255.736C202.236 254.243 202.067 247.916 201.887 244.729C211.672 239.599 213.119 237.141 206.631 227.472C208.511 224.071 209.633 222.667 212.212 219.906C221.967 226.58 224.032 223.438 228.297 214.077C228.839 212.888 229.967 212.957 231.118 212.77C234.014 212.654 237.002 212.651 239.907 212.611ZM247.342 243.218C246.413 236.385 240.175 231.559 233.328 232.373C228.794 232.912 224.904 235.854 223.152 240.069C221.399 244.284 222.056 249.118 224.871 252.712C227.686 256.307 232.221 258.103 236.733 257.412C243.55 256.368 248.271 250.051 247.342 243.218Z" fill="#212529"/>
<path d="M237.967 190.269C244.453 190.031 261.085 188.157 265.899 193.172C269.183 196.593 261.947 202.955 259.038 205.007C244.593 205.91 222.556 205.152 207.503 205.236L118.603 206.04C110.683 206.21 100.161 207.539 93.7492 202.055C90.9082 199.624 89.7112 194.984 92.5242 192.024C95.7882 190.39 139.301 190.999 146.344 190.983L237.967 190.269Z" fill="#212529"/>
</g>
</g>
</g>
<defs>
<clipPath id="clip0_4367_60869">
<rect width="326" height="326" fill="white"/>
</clipPath>
</defs>
</svg>
