<svg width="866" height="326" viewBox="0 0 866 326" fill="none" xmlns="http://www.w3.org/2000/svg">
<g clip-path="url(#clip0_4367_60883)">
<mask id="mask0_4367_60883" style="mask-type:luminance" maskUnits="userSpaceOnUse" x="0" y="0" width="866" height="326">
<path d="M866 0H0V326H866V0Z" fill="white"/>
</mask>
<g mask="url(#mask0_4367_60883)">
<path d="M155.034 -0.00661887C244.977 -4.49662 321.49 64.8598 325.827 154.81C330.163 244.76 260.678 321.156 170.72 325.339C80.9799 329.512 4.80791 260.229 0.48146 170.496C-3.84464 80.7623 65.3082 4.47241 155.034 -0.00661887ZM312.635 151.943C306.697 69.3067 234.836 7.16604 152.209 13.216C69.7382 19.2542 7.74247 90.9471 13.669 173.425C19.5955 255.903 91.2055 317.996 173.691 312.18C256.334 306.354 318.573 234.578 312.635 151.943Z" fill="#212529"/>
<path d="M171.66 78.5697C172.275 78.5157 172.891 78.4777 173.508 78.4557C177.34 78.3407 180.859 79.7687 183.569 82.5057C192.913 91.9447 181.506 99.0427 181.697 103.218C181.723 103.775 181.963 104.755 182.362 105.163C183.464 106.289 194.035 107.199 196.314 107.682C206.412 109.822 217.047 116.695 224.745 123.36C242.592 138.808 250.388 158.82 252.059 181.95C227.455 181.994 202.851 182.167 178.249 182.468L98.3438 183.01C98.7878 147.938 119.195 115.217 155.103 107.221C157.639 106.657 165.949 106.162 167.263 104.322C166.833 101.478 164.189 98.6387 163.079 95.8537C159.558 87.0227 163.747 81.7937 171.66 78.5697Z" fill="#212529"/>
<path d="M58.4551 70.9082C69.1541 71.7002 63.7601 84.8852 64.9401 91.6382C66.0871 98.2112 61.5211 115.995 68.6261 118.31C78.6191 116.532 68.7051 76.4702 74.6661 72.8632C92.2171 62.2412 78.5071 110.465 86.0961 118.008C87.1481 118.461 87.9071 118.642 89.0201 118.185C96.0491 115.298 88.5531 80.9192 93.1111 73.2052C93.7701 72.0902 94.7301 71.2912 96.0341 71.0532C97.6421 70.7592 98.9501 71.3312 100.144 72.3502C102.472 74.3372 102.657 76.7092 102.774 79.5912C103.081 87.1142 102.823 94.7642 102.801 102.301C102.779 109.427 103.226 116.944 102.134 123.989C101.689 126.855 100.794 129.443 99.4301 132.005C96.1631 138.139 90.6911 142.714 86.0341 147.755C85.9301 152.276 86.3501 158.54 86.5531 163.18C87.1011 170.794 87.4701 178.42 87.6611 186.052C87.2271 186.423 86.8041 186.807 86.3921 187.202C79.4231 193.943 81.9721 199.944 88.0821 205.729C89.2161 218.826 89.3651 234.962 89.7631 248.207C90.0291 257.054 77.5991 262.199 69.8501 254.806C68.0421 253.075 66.8711 250.785 66.5271 248.306C65.7961 242.85 67.0321 225.613 67.3551 219.595L69.7711 175.25C70.2541 166.39 70.9951 156.689 70.9811 147.905C65.7101 141.735 55.7871 133.86 54.9231 125.03C53.3461 108.901 53.6991 91.4772 54.5051 75.2772C54.6011 73.3412 57.0351 71.8082 58.4551 70.9082Z" fill="#212529"/>
<path d="M239.907 212.611C243.874 221.635 247.473 226.641 257.026 219.245C260.506 222.666 261.758 223.892 263.651 228.559C258.283 238.655 258.994 240.491 268.241 246.789C267.415 251.706 266.746 253.753 264.435 258.102C253.88 258.86 251.71 260.767 253.597 271.5C249.569 274.353 247.354 275.046 242.801 276.494C240.483 274.106 239.667 273.28 236.947 271.289C231.386 268.818 227.915 273.018 223.899 276.406C220.019 274.95 217.893 273.385 214.605 271.022C217.359 258.013 213.756 260.308 205.071 255.736C202.236 254.243 202.067 247.916 201.887 244.729C211.672 239.599 213.119 237.141 206.631 227.472C208.511 224.071 209.633 222.667 212.212 219.906C221.967 226.58 224.032 223.438 228.297 214.077C228.839 212.888 229.967 212.957 231.118 212.77C234.014 212.654 237.002 212.651 239.907 212.611ZM247.342 243.218C246.413 236.385 240.175 231.559 233.328 232.373C228.794 232.912 224.904 235.854 223.152 240.069C221.399 244.284 222.056 249.118 224.871 252.712C227.686 256.307 232.221 258.103 236.733 257.412C243.55 256.368 248.271 250.051 247.342 243.218Z" fill="#212529"/>
<path d="M237.967 190.269C244.453 190.031 261.085 188.157 265.899 193.172C269.183 196.593 261.947 202.955 259.038 205.007C244.593 205.91 222.556 205.152 207.503 205.236L118.603 206.04C110.683 206.21 100.161 207.539 93.7492 202.055C90.9082 199.624 89.7112 194.984 92.5242 192.024C95.7882 190.39 139.301 190.999 146.344 190.983L237.967 190.269Z" fill="#212529"/>
<path d="M742.725 94.6967C751.14 93.8107 762.026 96.0777 769.165 100.733C780.023 107.813 783.501 118.018 786.097 129.963C779.203 129.972 772.31 129.895 765.417 129.729C764.408 126.119 763.19 122.638 760.897 119.625C754.898 111.74 741.116 110.444 733.584 116.813C723.584 125.268 723.29 140.743 723.365 152.75C723.422 162.057 724.104 172.151 730.332 179.571C734.571 184.735 739.966 186.974 746.457 187.369C751.724 187.691 757.024 186.345 760.881 182.561C767.18 176.392 767.478 169.871 767.87 161.846C761.184 161.734 754.242 161.829 747.535 161.83L747.571 149.875C747.529 148.55 747.316 147.833 748.039 146.778C750.892 146.233 758.441 146.472 761.769 146.475L786.443 146.498C786.645 174.178 790.287 199.77 754.235 204.272C725.07 207.914 704.814 190.199 702.321 161.059C699.678 130.174 706.491 98.0967 742.725 94.6967Z" fill="#212529"/>
<path d="M826.26 124.64C846.678 122.64 861.044 134.041 864.524 154.246C867.097 169.185 864.802 186.889 852.882 197.423C847.789 201.924 842.315 203.347 835.782 204.462C826.051 204.915 817.918 204.614 809.731 198.746C798.372 190.489 794.959 176.612 795.251 163.251C795.705 142.483 805.103 127.923 826.26 124.64ZM846.1 166.361C846.325 152.798 843.145 140.668 827.175 141.612C813.044 146.376 813.041 165.156 816.696 177.236C819.111 185.215 825.909 188.58 833.997 187.483C843.354 184.031 845.95 175.495 846.1 166.361Z" fill="#212529"/>
<path d="M403.876 94.7066C411.892 93.8166 423.072 96.5326 429.572 101.425C440.401 109.575 443.194 119.47 445.26 132.018C438.585 132.073 431.91 132.063 425.236 131.987C423.731 116.716 411.312 108.511 397.067 114.394C381.804 121.758 383.235 140.535 383.205 154.987C383.165 173.707 393.444 194.237 415.755 185.435C421.448 183.19 424.627 176.307 426.47 170.541C426.662 169.369 426.523 169.808 427.227 168.784C430.079 167.674 442.632 168.223 446.306 168.285C445.499 176.513 442.378 184.344 437.304 190.873C424.077 207.706 395.759 209.11 379.311 196.13C368.253 186.848 363.334 173.765 362.027 159.912C359.008 127.928 367.68 98.2866 403.876 94.7066Z" fill="#212529"/>
<path d="M483.361 124.679C491.599 123.406 504.379 125.088 510.448 131.18C519.953 140.722 518.053 157.71 518.051 170.19L518.045 203.001L499.34 203.007L499.261 195C488.65 208.277 465.369 208.118 455.87 193.59C453.945 189.785 452.915 185.59 452.861 181.326C452.386 156.794 482.304 156.886 499.113 156.967C499.131 152.772 499.447 148.815 497.378 144.918C493.837 138.247 484.708 137.687 478.795 141.391C475.228 143.625 474.565 145.534 473.67 149.541C468.029 149.528 462.388 149.554 456.748 149.621C458.269 132.54 467.632 126.658 483.361 124.679ZM499.054 169.074C494.94 169.078 489.834 168.942 485.8 169.188C481.476 169.522 478.226 169.852 475.086 173.384C473.302 175.386 472.403 178.024 472.592 180.699C472.757 183.388 474.084 185.872 476.227 187.504C479.135 189.75 482.538 190.019 486.086 189.833C498.917 187.457 499.104 180.105 499.054 169.074Z" fill="#212529"/>
<path d="M608.677 124.647C640.346 122.124 644.666 143.591 644.469 168.986L597.868 168.987C598.961 179.541 602.66 193.338 618.237 189.269C622.01 188.283 624.54 184.431 626.088 180.937L642.258 180.808L643.176 181.002C643.931 183.805 640.479 190.834 638.85 193.21C629.757 206.921 604.664 207.845 592.085 198.833C575.423 186.896 574.309 153.084 585.827 137.341C591.407 129.715 599.507 125.961 608.677 124.647ZM626.609 157.27C625.728 146.228 622.586 138.294 609.697 139.575C600.512 143.06 599.278 148.21 598.008 157.261C604.048 157.333 610.088 157.342 616.127 157.288L626.609 157.27Z" fill="#212529"/>
<path d="M538.004 107.002C544.451 106.888 551.164 106.98 557.633 106.979L557.487 125.959L573.695 125.957L573.656 142.659L557.351 142.632C557.308 149.303 555.559 182.115 559.62 185.801C562.98 188.852 569.93 187.285 573.935 186.813L573.957 199.124C574.006 200.855 574.203 200.249 573.498 201.687C569.453 204.036 566.12 203.553 561.963 203.864C536.383 205.774 537.906 187.401 537.936 168.427C537.949 160.433 537.955 151 537.972 142.652L525.959 142.721L525.918 125.954L537.993 125.916L538.004 107.002Z" fill="#212529"/>
<path d="M690.049 124.633L696.129 124.471L696.068 145.041C670.638 144.711 673.168 157.25 673.058 177.598C673.014 185.988 673.086 194.619 673.108 203.02C669.528 202.988 655.917 203.975 653.811 202.149L653.691 200.125L653.723 125.967C659.968 125.896 666.314 125.961 672.568 125.973L672.366 137.061C677.054 128.973 680.876 126.439 690.049 124.633Z" fill="#212529"/>
</g>
</g>
<defs>
<clipPath id="clip0_4367_60883">
<rect width="866" height="326" fill="white"/>
</clipPath>
</defs>
</svg>
